<svg class="border shadow-md" viewBox="0 0 491.04 491.04" style="width: 491.04px; height: 491.04px;" xmlns="http://www.w3.org/2000/svg" preserveAspectRatio="none"><rect class="bg" id="bg" x="0" y="0" width="491.04" height="491.04" fill="#ffffff"/><line opacity="1" x1="0" y1="33" x2="80" y2="113" stroke-linecap="round" stroke="#7678ED" stroke-width="17"/><line opacity="1" x1="0" y1="228" x2="40.92" y2="268.92" stroke-linecap="round" stroke="#7678ED" stroke-width="13"/><line opacity="1" x1="0" y1="350.76" x2="44.5" y2="395.26" stroke-linecap="round" stroke="#F18701" stroke-width="21"/><line opacity="1" x1="0" y1="484.26" x2="40.92" y2="525.18" stroke-linecap="round" stroke="#F7B801" stroke-width="15"/><line opacity="1" x1="12.922105263157896" y1="-31" x2="73.4221052631579" y2="29.5" stroke-linecap="round" stroke="#F35B04" stroke-width="30"/><line opacity="1" x1="12.922105263157896" y1="150.5" x2="73.9221052631579" y2="211.5" stroke-linecap="round" stroke="#F18701" stroke-width="16"/><line opacity="1" x1="12.922105263157896" y1="300.5" x2="90.9221052631579" y2="378.5" stroke-linecap="round" stroke="#3D348B" stroke-width="16"/><line opacity="1" x1="12.922105263157896" y1="460.34000000000003" x2="66.9221052631579" y2="514.34" stroke-linecap="round" stroke="#7678ED" stroke-width="13"/><line opacity="1" x1="25.84421052631579" y1="25" x2="113.84421052631579" y2="113" stroke-linecap="round" stroke="#F18701" stroke-width="26"/><line opacity="1" x1="25.84421052631579" y1="222.12" x2="93.84421052631579" y2="290.12" stroke-linecap="round" stroke="#F7B801" stroke-width="24"/><line opacity="1" x1="25.84421052631579" y1="399.24" x2="127.84421052631579" y2="501.24" stroke-linecap="round" stroke="#F18701" stroke-width="25"/><line opacity="1" x1="38.76631578947369" y1="-72" x2="99.76631578947368" y2="-11" stroke-linecap="round" stroke="#3D348B" stroke-width="27"/><line opacity="1" x1="38.76631578947369" y1="54.47200000000001" x2="97.76631578947368" y2="113.47200000000001" stroke-linecap="round" stroke="#F7B801" stroke-width="30"/><line opacity="1" x1="38.76631578947369" y1="178.94400000000002" x2="92.76631578947368" y2="232.94400000000002" stroke-linecap="round" stroke="#F35B04" stroke-width="26"/><line opacity="1" x1="38.76631578947369" y1="298.41600000000005" x2="90.76631578947368" y2="350.41600000000005" stroke-linecap="round" stroke="#7678ED" stroke-width="14"/><line opacity="1" x1="38.76631578947369" y1="417.41600000000005" x2="92.76631578947368" y2="471.41600000000005" stroke-linecap="round" stroke="#7678ED" stroke-width="13"/><line opacity="1" x1="51.68842105263158" y1="17" x2="84.68842105263158" y2="50" stroke-linecap="round" stroke="#F7B801" stroke-width="10"/><line opacity="1" x1="51.68842105263158" y1="104.56" x2="78.96842105263158" y2="131.84" stroke-linecap="round" stroke="#3D348B" stroke-width="23"/><line opacity="1" x1="51.68842105263158" y1="186.4" x2="78.96842105263158" y2="213.68" stroke-linecap="round" stroke="#F18701" stroke-width="10"/><line opacity="1" x1="51.68842105263158" y1="268.24" x2="84.68842105263158" y2="301.24" stroke-linecap="round" stroke="#3D348B" stroke-width="10"/><line opacity="1" x1="51.68842105263158" y1="367.24" x2="78.96842105263158" y2="394.52" stroke-linecap="round" stroke="#F35B04" stroke-width="10"/><line opacity="1" x1="51.68842105263158" y1="449.08000000000004" x2="85.68842105263158" y2="483.08000000000004" stroke-linecap="round" stroke="#F18701" stroke-width="19"/><line opacity="1" x1="64.61052631578949" y1="52" x2="91.89052631578949" y2="79.28" stroke-linecap="round" stroke="#7678ED" stroke-width="10"/><line opacity="1" x1="64.61052631578949" y1="133.84" x2="107.61052631578949" y2="176.84" stroke-linecap="round" stroke="#7678ED" stroke-width="29"/><line opacity="1" x1="64.61052631578949" y1="231.4" x2="99.11052631578949" y2="265.9" stroke-linecap="round" stroke="#F7B801" stroke-width="10"/><line opacity="1" x1="64.61052631578949" y1="334.9" x2="91.89052631578949" y2="362.17999999999995" stroke-linecap="round" stroke="#F35B04" stroke-width="10"/><line opacity="1" x1="64.61052631578949" y1="416.74" x2="91.89052631578949" y2="444.02" stroke-linecap="round" stroke="#3D348B" stroke-width="10"/><line opacity="1" x1="64.61052631578949" y1="498.58000000000004" x2="91.89052631578949" y2="525.86" stroke-linecap="round" stroke="#7678ED" stroke-width="17"/><line opacity="1" x1="77.53263157894737" y1="-101" x2="132.53263157894736" y2="-46" stroke-linecap="round" stroke="#3D348B" stroke-width="11"/><line opacity="1" x1="77.53263157894737" y1="19.47200000000001" x2="110.26863157894738" y2="52.20800000000001" stroke-linecap="round" stroke="#F7B801" stroke-width="24"/><line opacity="1" x1="77.53263157894737" y1="117.68000000000002" x2="113.53263157894737" y2="153.68" stroke-linecap="round" stroke="#3D348B" stroke-width="10"/><line opacity="1" x1="77.53263157894737" y1="219.68" x2="135.53263157894736" y2="277.68" stroke-linecap="round" stroke="#3D348B" stroke-width="21"/><line opacity="1" x1="77.53263157894737" y1="357.68" x2="125.53263157894737" y2="405.68" stroke-linecap="round" stroke="#F18701" stroke-width="11"/><line opacity="1" x1="90.45473684210526" y1="85" x2="126.45473684210526" y2="121" stroke-linecap="round" stroke="#F35B04" stroke-width="30"/><line opacity="1" x1="90.45473684210526" y1="175.56" x2="119.45473684210526" y2="204.56" stroke-linecap="round" stroke="#7678ED" stroke-width="14"/><line opacity="1" x1="90.45473684210526" y1="262.56" x2="123.45473684210526" y2="295.56" stroke-linecap="round" stroke="#3D348B" stroke-width="10"/><line opacity="1" x1="90.45473684210526" y1="350.12" x2="130.95473684210526" y2="390.62" stroke-linecap="round" stroke="#7678ED" stroke-width="10"/><line opacity="1" x1="90.45473684210526" y1="471.62" x2="117.73473684210526" y2="498.9" stroke-linecap="round" stroke="#7678ED" stroke-width="17"/><line opacity="1" x1="90.45473684210526" y1="553.46" x2="135.45473684210526" y2="598.46" stroke-linecap="round" stroke="#7678ED" stroke-width="10"/><line opacity="1" x1="103.37684210526317" y1="46" x2="201.37684210526317" y2="144" stroke-linecap="round" stroke="#F7B801" stroke-width="31"/><line opacity="1" x1="103.37684210526317" y1="299" x2="157.93684210526317" y2="353.56" stroke-linecap="round" stroke="#F35B04" stroke-width="24"/><line opacity="1" x1="103.37684210526317" y1="462.68" x2="206.37684210526317" y2="565.6800000000001" stroke-linecap="round" stroke="#7678ED" stroke-width="10"/><line opacity="1" x1="116.29894736842107" y1="102" x2="143.57894736842107" y2="129.28" stroke-linecap="round" stroke="#F18701" stroke-width="29"/><line opacity="1" x1="116.29894736842107" y1="183.84" x2="143.57894736842107" y2="211.12" stroke-linecap="round" stroke="#7678ED" stroke-width="27"/><line opacity="1" x1="116.29894736842107" y1="265.68" x2="183.29894736842107" y2="332.68" stroke-linecap="round" stroke="#3D348B" stroke-width="23"/><line opacity="1" x1="116.29894736842107" y1="401.68" x2="145.29894736842107" y2="430.68" stroke-linecap="round" stroke="#3D348B" stroke-width="17"/><line opacity="1" x1="116.29894736842107" y1="485.24" x2="161.29894736842107" y2="530.24" stroke-linecap="round" stroke="#F7B801" stroke-width="12"/><line opacity="1" x1="116.29894736842107" y1="584.8" x2="150.29894736842107" y2="618.8" stroke-linecap="round" stroke="#F35B04" stroke-width="28"/><line opacity="1" x1="129.22105263157897" y1="-72" x2="280.22105263157897" y2="79" stroke-linecap="round" stroke="#F7B801" stroke-width="20"/><line opacity="1" x1="129.22105263157897" y1="231" x2="197.22105263157897" y2="299" stroke-linecap="round" stroke="#F7B801" stroke-width="10"/><line opacity="1" x1="129.22105263157897" y1="408.12" x2="183.78105263157897" y2="462.68" stroke-linecap="round" stroke="#3D348B" stroke-width="25"/><line opacity="1" x1="142.14315789473685" y1="106" x2="183.06315789473683" y2="146.92000000000002" stroke-linecap="round" stroke="#F7B801" stroke-width="30"/><line opacity="1" x1="142.14315789473685" y1="228.76" x2="183.06315789473683" y2="269.68" stroke-linecap="round" stroke="#3D348B" stroke-width="10"/><line opacity="1" x1="142.14315789473685" y1="351.52" x2="183.06315789473683" y2="392.44" stroke-linecap="round" stroke="#F35B04" stroke-width="20"/><line opacity="1" x1="142.14315789473685" y1="474.28" x2="198.14315789473685" y2="530.28" stroke-linecap="round" stroke="#7678ED" stroke-width="26"/><line opacity="1" x1="155.06526315789475" y1="84" x2="209.62526315789475" y2="138.56" stroke-linecap="round" stroke="#3D348B" stroke-width="30"/><line opacity="1" x1="155.06526315789475" y1="247.68" x2="262.0652631578947" y2="354.68" stroke-linecap="round" stroke="#3D348B" stroke-width="28"/><line opacity="1" x1="155.06526315789475" y1="463.8" x2="218.06526315789475" y2="526.8" stroke-linecap="round" stroke="#3D348B" stroke-width="21"/><line opacity="1" x1="167.98736842105265" y1="37" x2="222.54736842105265" y2="91.56" stroke-linecap="round" stroke="#3D348B" stroke-width="16"/><line opacity="1" x1="167.98736842105265" y1="200.68" x2="231.98736842105265" y2="264.68" stroke-linecap="round" stroke="#F18701" stroke-width="31"/><line opacity="1" x1="167.98736842105265" y1="373.8" x2="222.54736842105265" y2="428.36" stroke-linecap="round" stroke="#F35B04" stroke-width="27"/><line opacity="1" x1="180.90947368421052" y1="-80" x2="217.90947368421052" y2="-43" stroke-linecap="round" stroke="#3D348B" stroke-width="31"/><line opacity="1" x1="180.90947368421052" y1="4" x2="248.90947368421052" y2="72" stroke-linecap="round" stroke="#F18701" stroke-width="10"/><line opacity="1" x1="180.90947368421052" y1="141" x2="213.90947368421052" y2="174" stroke-linecap="round" stroke="#F35B04" stroke-width="18"/><line opacity="1" x1="180.90947368421052" y1="226" x2="209.40947368421052" y2="254.5" stroke-linecap="round" stroke="#F35B04" stroke-width="10"/><line opacity="1" x1="180.90947368421052" y1="311.5" x2="215.90947368421052" y2="346.5" stroke-linecap="round" stroke="#F7B801" stroke-width="10"/><line opacity="1" x1="180.90947368421052" y1="393.2657142857143" x2="213.90947368421052" y2="426.2657142857143" stroke-linecap="round" stroke="#F35B04" stroke-width="31"/><line opacity="1" x1="180.90947368421052" y1="473.0314285714286" x2="211.90947368421052" y2="504.0314285714286" stroke-linecap="round" stroke="#F7B801" stroke-width="10"/><line opacity="1" x1="193.83157894736843" y1="-56" x2="233.83157894736843" y2="-16" stroke-linecap="round" stroke="#F7B801" stroke-width="17"/><line opacity="1" x1="193.83157894736843" y1="30.765714285714296" x2="217.21443609022558" y2="54.148571428571444" stroke-linecap="round" stroke="#F18701" stroke-width="10"/><line opacity="1" x1="193.83157894736843" y1="100.91428571428573" x2="225.83157894736843" y2="132.9142857142857" stroke-linecap="round" stroke="#F18701" stroke-width="23"/><line opacity="1" x1="193.83157894736843" y1="196.9142857142857" x2="226.83157894736843" y2="229.9142857142857" stroke-linecap="round" stroke="#7678ED" stroke-width="10"/><line opacity="1" x1="193.83157894736843" y1="282.9142857142857" x2="226.83157894736843" y2="315.9142857142857" stroke-linecap="round" stroke="#3D348B" stroke-width="10"/><line opacity="1" x1="193.83157894736843" y1="362.68" x2="217.21443609022558" y2="386.0628571428571" stroke-linecap="round" stroke="#F7B801" stroke-width="24"/><line opacity="1" x1="193.83157894736843" y1="432.8285714285714" x2="235.83157894736843" y2="474.8285714285714" stroke-linecap="round" stroke="#F7B801" stroke-width="25"/><line opacity="1" x1="206.75368421052633" y1="80" x2="312.75368421052633" y2="186" stroke-linecap="round" stroke="#F35B04" stroke-width="10"/><line opacity="1" x1="206.75368421052633" y1="312" x2="295.75368421052633" y2="401" stroke-linecap="round" stroke="#F7B801" stroke-width="23"/><line opacity="1" x1="206.75368421052633" y1="510.12" x2="288.25368421052633" y2="591.62" stroke-linecap="round" stroke="#7678ED" stroke-width="10"/><line opacity="1" x1="219.67578947368423" y1="21" x2="292.67578947368423" y2="94" stroke-linecap="round" stroke="#F35B04" stroke-width="12"/><line opacity="1" x1="219.67578947368423" y1="203.12" x2="274.23578947368424" y2="257.68" stroke-linecap="round" stroke="#F35B04" stroke-width="10"/><line opacity="1" x1="219.67578947368423" y1="366.8" x2="286.67578947368423" y2="433.8" stroke-linecap="round" stroke="#3D348B" stroke-width="10"/><line opacity="1" x1="232.59789473684214" y1="-76" x2="287.15789473684214" y2="-21.439999999999998" stroke-linecap="round" stroke="#F7B801" stroke-width="10"/><line opacity="1" x1="232.59789473684214" y1="87.68" x2="287.15789473684214" y2="142.24" stroke-linecap="round" stroke="#F35B04" stroke-width="21"/><line opacity="1" x1="232.59789473684214" y1="251.36" x2="305.59789473684214" y2="324.36" stroke-linecap="round" stroke="#F35B04" stroke-width="19"/><line opacity="1" x1="245.52" y1="94" x2="277.52" y2="126" stroke-linecap="round" stroke="#F18701" stroke-width="18"/><line opacity="1" x1="245.52" y1="172.7657142857143" x2="278.52" y2="205.7657142857143" stroke-linecap="round" stroke="#F18701" stroke-width="10"/><line opacity="1" x1="245.52" y1="255.7657142857143" x2="280.02" y2="290.2657142857143" stroke-linecap="round" stroke="#7678ED" stroke-width="30"/><line opacity="1" x1="245.52" y1="359.2657142857143" x2="284.52" y2="398.2657142857143" stroke-linecap="round" stroke="#F18701" stroke-width="14"/><line opacity="1" x1="245.52" y1="445.0314285714286" x2="291.52" y2="491.0314285714286" stroke-linecap="round" stroke="#F18701" stroke-width="10"/><line opacity="1" x1="245.52" y1="537.797142857143" x2="270.52" y2="562.797142857143" stroke-linecap="round" stroke="#F18701" stroke-width="10"/><line opacity="1" x1="245.52" y1="612.797142857143" x2="300.52" y2="667.797142857143" stroke-linecap="round" stroke="#F18701" stroke-width="28"/><line opacity="1" x1="258.44210526315794" y1="-97" x2="361.44210526315794" y2="6" stroke-linecap="round" stroke="#F18701" stroke-width="30"/><line opacity="1" x1="258.44210526315794" y1="115.12" x2="334.44210526315794" y2="191.12" stroke-linecap="round" stroke="#3D348B" stroke-width="10"/><line opacity="1" x1="258.44210526315794" y1="300.24" x2="333.44210526315794" y2="375.24" stroke-linecap="round" stroke="#7678ED" stroke-width="26"/><line opacity="1" x1="271.3642105263158" y1="-45" x2="369.3642105263158" y2="53" stroke-linecap="round" stroke="#F35B04" stroke-width="16"/><line opacity="1" x1="271.3642105263158" y1="162.12" x2="339.3642105263158" y2="230.12" stroke-linecap="round" stroke="#3D348B" stroke-width="11"/><line opacity="1" x1="271.3642105263158" y1="339.24" x2="373.3642105263158" y2="441.24" stroke-linecap="round" stroke="#3D348B" stroke-width="13"/><line opacity="1" x1="284.2863157894737" y1="116" x2="364.2863157894737" y2="196" stroke-linecap="round" stroke="#7678ED" stroke-width="24"/><line opacity="1" x1="284.2863157894737" y1="356" x2="339.2863157894737" y2="411" stroke-linecap="round" stroke="#F18701" stroke-width="10"/><line opacity="1" x1="284.2863157894737" y1="521" x2="338.8463157894737" y2="575.56" stroke-linecap="round" stroke="#F18701" stroke-width="28"/><line opacity="1" x1="297.2084210526316" y1="104" x2="403.2084210526316" y2="210" stroke-linecap="round" stroke="#7678ED" stroke-width="10"/><line opacity="1" x1="297.2084210526316" y1="319.12" x2="353.2084210526316" y2="375.12" stroke-linecap="round" stroke="#3D348B" stroke-width="10"/><line opacity="1" x1="297.2084210526316" y1="484.24" x2="366.2084210526316" y2="553.24" stroke-linecap="round" stroke="#F18701" stroke-width="31"/><line opacity="1" x1="310.1305263157895" y1="117" x2="346.1305263157895" y2="153" stroke-linecap="round" stroke="#F35B04" stroke-width="27"/><line opacity="1" x1="310.1305263157895" y1="218.472" x2="346.1305263157895" y2="254.472" stroke-linecap="round" stroke="#F18701" stroke-width="15"/><line opacity="1" x1="310.1305263157895" y1="319.944" x2="342.8665263157895" y2="352.68" stroke-linecap="round" stroke="#7678ED" stroke-width="30"/><line opacity="1" x1="310.1305263157895" y1="418.15200000000004" x2="363.1305263157895" y2="471.15200000000004" stroke-linecap="round" stroke="#7678ED" stroke-width="10"/><line opacity="1" x1="310.1305263157895" y1="536.624" x2="342.8665263157895" y2="569.36" stroke-linecap="round" stroke="#7678ED" stroke-width="10"/><line opacity="1" x1="323.0526315789474" y1="90" x2="368.0526315789474" y2="135" stroke-linecap="round" stroke="#3D348B" stroke-width="15"/><line opacity="1" x1="323.0526315789474" y1="215" x2="364.0526315789474" y2="256" stroke-linecap="round" stroke="#3D348B" stroke-width="18"/><line opacity="1" x1="323.0526315789474" y1="338" x2="378.0526315789474" y2="393" stroke-linecap="round" stroke="#F7B801" stroke-width="12"/><line opacity="1" x1="323.0526315789474" y1="458.472" x2="365.0526315789474" y2="500.472" stroke-linecap="round" stroke="#F18701" stroke-width="20"/><line opacity="1" x1="323.0526315789474" y1="573.472" x2="379.0526315789474" y2="629.472" stroke-linecap="round" stroke="#7678ED" stroke-width="15"/><line opacity="1" x1="335.9747368421053" y1="16" x2="386.9747368421053" y2="67" stroke-linecap="round" stroke="#7678ED" stroke-width="10"/><line opacity="1" x1="335.9747368421053" y1="121.56" x2="363.25473684210533" y2="148.84" stroke-linecap="round" stroke="#7678ED" stroke-width="28"/><line opacity="1" x1="335.9747368421053" y1="203.4" x2="374.9747368421053" y2="242.4" stroke-linecap="round" stroke="#3D348B" stroke-width="12"/><line opacity="1" x1="335.9747368421053" y1="296.96000000000004" x2="397.9747368421053" y2="358.96000000000004" stroke-linecap="round" stroke="#7678ED" stroke-width="24"/><line opacity="1" x1="335.9747368421053" y1="432.96000000000004" x2="398.9747368421053" y2="495.96000000000004" stroke-linecap="round" stroke="#F35B04" stroke-width="11"/><line opacity="1" x1="335.9747368421053" y1="571.96" x2="384.9747368421053" y2="620.96" stroke-linecap="round" stroke="#F7B801" stroke-width="29"/><line opacity="1" x1="348.8968421052632" y1="-110" x2="397.8968421052632" y2="-61" stroke-linecap="round" stroke="#F7B801" stroke-width="10"/><line opacity="1" x1="348.8968421052632" y1="4.472000000000008" x2="416.8968421052632" y2="72.47200000000001" stroke-linecap="round" stroke="#F35B04" stroke-width="18"/><line opacity="1" x1="348.8968421052632" y1="159.472" x2="405.8968421052632" y2="216.472" stroke-linecap="round" stroke="#3D348B" stroke-width="28"/><line opacity="1" x1="348.8968421052632" y1="281.944" x2="381.6328421052632" y2="314.68" stroke-linecap="round" stroke="#7678ED" stroke-width="10"/><line opacity="1" x1="348.8968421052632" y1="380.15200000000004" x2="405.8968421052632" y2="437.15200000000004" stroke-linecap="round" stroke="#F7B801" stroke-width="30"/><line opacity="1" x1="361.81894736842105" y1="117" x2="416.37894736842105" y2="171.56" stroke-linecap="round" stroke="#F18701" stroke-width="10"/><line opacity="1" x1="361.81894736842105" y1="280.68" x2="430.81894736842105" y2="349.68" stroke-linecap="round" stroke="#F18701" stroke-width="14"/><line opacity="1" x1="361.81894736842105" y1="458.8" x2="422.31894736842105" y2="519.3" stroke-linecap="round" stroke="#7678ED" stroke-width="10"/><line opacity="1" x1="374.74105263157895" y1="92" x2="460.74105263157895" y2="178" stroke-linecap="round" stroke="#7678ED" stroke-width="25"/><line opacity="1" x1="374.74105263157895" y1="287.12" x2="429.30105263157895" y2="341.68" stroke-linecap="round" stroke="#F35B04" stroke-width="10"/><line opacity="1" x1="374.74105263157895" y1="450.8" x2="432.74105263157895" y2="508.8" stroke-linecap="round" stroke="#F35B04" stroke-width="16"/><line opacity="1" x1="387.66315789473686" y1="112" x2="411.046015037594" y2="135.38285714285715" stroke-linecap="round" stroke="#F35B04" stroke-width="10"/><line opacity="1" x1="387.66315789473686" y1="182.14857142857142" x2="412.66315789473686" y2="207.14857142857142" stroke-linecap="round" stroke="#7678ED" stroke-width="10"/><line opacity="1" x1="387.66315789473686" y1="253.9142857142857" x2="413.66315789473686" y2="279.9142857142857" stroke-linecap="round" stroke="#F35B04" stroke-width="10"/><line opacity="1" x1="387.66315789473686" y1="326.68" x2="414.66315789473686" y2="353.68" stroke-linecap="round" stroke="#F18701" stroke-width="21"/><line opacity="1" x1="387.66315789473686" y1="400.4457142857143" x2="433.66315789473686" y2="446.4457142857143" stroke-linecap="round" stroke="#F7B801" stroke-width="31"/><line opacity="1" x1="387.66315789473686" y1="498.4457142857143" x2="411.046015037594" y2="521.8285714285714" stroke-linecap="round" stroke="#7678ED" stroke-width="10"/><line opacity="1" x1="387.66315789473686" y1="568.5942857142858" x2="411.046015037594" y2="591.9771428571429" stroke-linecap="round" stroke="#F7B801" stroke-width="11"/><line opacity="1" x1="400.58526315789476" y1="-67" x2="445.58526315789476" y2="-22" stroke-linecap="round" stroke="#3D348B" stroke-width="10"/><line opacity="1" x1="400.58526315789476" y1="32.56" x2="435.58526315789476" y2="67.56" stroke-linecap="round" stroke="#F35B04" stroke-width="10"/><line opacity="1" x1="400.58526315789476" y1="137.56" x2="440.58526315789476" y2="177.56" stroke-linecap="round" stroke="#3D348B" stroke-width="10"/><line opacity="1" x1="400.58526315789476" y1="232.12" x2="440.08526315789476" y2="271.62" stroke-linecap="round" stroke="#3D348B" stroke-width="11"/><line opacity="1" x1="400.58526315789476" y1="350.62" x2="427.8652631578948" y2="377.9" stroke-linecap="round" stroke="#F35B04" stroke-width="17"/><line opacity="1" x1="400.58526315789476" y1="432.46000000000004" x2="427.8652631578948" y2="459.74" stroke-linecap="round" stroke="#3D348B" stroke-width="10"/><line opacity="1" x1="413.50736842105266" y1="121" x2="494.50736842105266" y2="202" stroke-linecap="round" stroke="#F18701" stroke-width="10"/><line opacity="1" x1="413.50736842105266" y1="327" x2="468.06736842105266" y2="381.56" stroke-linecap="round" stroke="#F35B04" stroke-width="31"/><line opacity="1" x1="413.50736842105266" y1="490.68" x2="513.5073684210527" y2="590.6800000000001" stroke-linecap="round" stroke="#3D348B" stroke-width="10"/><line opacity="1" x1="426.42947368421056" y1="57" x2="482.42947368421056" y2="113" stroke-linecap="round" stroke="#F35B04" stroke-width="20"/><line opacity="1" x1="426.42947368421056" y1="178.472" x2="486.42947368421056" y2="238.472" stroke-linecap="round" stroke="#3D348B" stroke-width="22"/><line opacity="1" x1="426.42947368421056" y1="303.944" x2="459.42947368421056" y2="336.944" stroke-linecap="round" stroke="#F7B801" stroke-width="23"/><line opacity="1" x1="426.42947368421056" y1="402.944" x2="459.16547368421055" y2="435.68" stroke-linecap="round" stroke="#7678ED" stroke-width="19"/><line opacity="1" x1="426.42947368421056" y1="501.15200000000004" x2="459.16547368421055" y2="533.888" stroke-linecap="round" stroke="#F35B04" stroke-width="21"/><line opacity="1" x1="439.35157894736847" y1="-76" x2="480.2715789473685" y2="-35.08" stroke-linecap="round" stroke="#F35B04" stroke-width="27"/><line opacity="1" x1="439.35157894736847" y1="46.760000000000005" x2="512.3515789473685" y2="119.76" stroke-linecap="round" stroke="#F7B801" stroke-width="27"/><line opacity="1" x1="439.35157894736847" y1="207.76" x2="492.35157894736847" y2="260.76" stroke-linecap="round" stroke="#F35B04" stroke-width="21"/><line opacity="1" x1="439.35157894736847" y1="342.6" x2="490.35157894736847" y2="393.6" stroke-linecap="round" stroke="#7678ED" stroke-width="18"/><line opacity="1" x1="452.27368421052637" y1="39" x2="600.2736842105264" y2="187" stroke-linecap="round" stroke="#F18701" stroke-width="27"/><line opacity="1" x1="452.27368421052637" y1="346" x2="541.2736842105264" y2="435" stroke-linecap="round" stroke="#7678ED" stroke-width="28"/><line opacity="1" x1="452.27368421052637" y1="596" x2="512.2736842105264" y2="656" stroke-linecap="round" stroke="#7678ED" stroke-width="26"/><line opacity="1" x1="465.1957894736843" y1="89" x2="519.7557894736842" y2="143.56" stroke-linecap="round" stroke="#F35B04" stroke-width="10"/><line opacity="1" x1="465.1957894736843" y1="252.68" x2="570.1957894736843" y2="357.68" stroke-linecap="round" stroke="#F35B04" stroke-width="28"/><line opacity="1" x1="465.1957894736843" y1="520.6800000000001" x2="556.1957894736843" y2="611.6800000000001" stroke-linecap="round" stroke="#F18701" stroke-width="21"/><line opacity="1" x1="478.1178947368421" y1="96" x2="516.1178947368421" y2="134" stroke-linecap="round" stroke="#F18701" stroke-width="15"/><line opacity="1" x1="478.1178947368421" y1="180.7657142857143" x2="501.6178947368421" y2="204.2657142857143" stroke-linecap="round" stroke="#F18701" stroke-width="16"/><line opacity="1" x1="478.1178947368421" y1="251.2657142857143" x2="513.1178947368421" y2="286.2657142857143" stroke-linecap="round" stroke="#F7B801" stroke-width="10"/><line opacity="1" x1="478.1178947368421" y1="333.0314285714286" x2="510.6178947368421" y2="365.5314285714286" stroke-linecap="round" stroke="#7678ED" stroke-width="31"/><line opacity="1" x1="478.1178947368421" y1="430.5314285714286" x2="501.50075187969924" y2="453.9142857142857" stroke-linecap="round" stroke="#3D348B" stroke-width="10"/><line opacity="1" x1="478.1178947368421" y1="500.68" x2="510.6178947368421" y2="533.1800000000001" stroke-linecap="round" stroke="#7678ED" stroke-width="13"/><line opacity="1" x1="478.1178947368421" y1="598.1800000000001" x2="543.1178947368421" y2="663.1800000000001" stroke-linecap="round" stroke="#F7B801" stroke-width="31"/></svg>